<svg xmlns:xlink="http://www.w3.org/1999/xlink" xmlns="http://www.w3.org/2000/svg" id="Calque_1" data-name="Calque 1" viewBox="0 0 500 500"><defs></defs><path class="cls-1" d="M435.18,2.34v0l-.14,0L359.49,170.55c-5,9.89-8.11,20.21-11.5,29.78s-7.09,18.74-12.39,27.45c-11.75,21.57-43.08,39.69-54.58,63.84-13.46,28.76-22,58.37-27.85,88.31l-2.69,14.62c-3.78,17.15-14.88,36.18-31.43,48.36-15.45,11.76-38,3.36-34.84-11.92,4.95-17.11,27.75-31,41.31-47,17.26-18.16,14.93-43.36,11.36-63.35-2.49-14.55-.74-27.11,5.81-40.33,9.17-21.17,25.13-40.29,37.3-60.81,10.84-16.08,0-38.17-26.57-41.61-22.23-3-35,11.4-42,23.05a151.51,151.51,0,0,0-13.83,29.48c-6.86,18.92-12.56,38.08-23.14,55.82-6.59,10.33-14.52,22.08-30,26.17-4.69,1.16-10.75,2.23-14.56,0-9.87-8.3,3.31-24.74,8.54-33.51,9.19-13.64,23.4-24.34,30.16-39.95,10.17-21.18-10.05-42-23-59.49h0a43.29,43.29,0,0,1-4.64-7.9L65,2.34l-.14,0v0H17.16V497.66H64.82V80.44l66.41,98.8-.09,0c6.63,10.39,14.84,20.68,20,30.77,4.12,7.93,6.29,15.83,2.75,23.83-5.85,13.8-22.14,25.74-31.81,39.24-6.62,9.46-14.35,19.57-15.22,30.52-1.71,16.19,15.68,27.61,38.15,23.83,25-3.35,40.17-19.87,49.58-35,11.72-18.69,18.18-38.47,25.68-57.8a142.64,142.64,0,0,1,13-26.78c3.28-4.88,6.32-9.26,11.07-12.31,4.58-2.13,9.9.16,12.87,3.72,5.61,6.71-.25,13.56-4.22,20.14-9,13.48-18.87,26.72-26.79,40.84-5.41,9.65-10.3,19.67-13.37,29.86-9.48,28.72,13.76,58.6-8.6,84.49-14.65,16.85-39.74,32.59-44.4,54-4.86,20.88,20.88,41.62,52.61,36.19,25.4-5.16,38.1-21.85,48.2-37.24a87.89,87.89,0,0,0,12.25-30.68c1.29-8.72,3.39-20.83,5.1-29.43a395.74,395.74,0,0,1,16-57.46c3.5-9.22,6.53-18,13.24-26.36,11.2-14.83,28.86-28.56,39.21-44.31,7.53-11.65,12.45-24.31,16.05-36.59.94-3.28,1.82-6.52,2.72-9.71a96.47,96.47,0,0,1,13.06-27.79l57-84.74V497.66h47.66V2.34Z"></path></svg>